<svg width="36" height="36" viewBox="0 0 36 36" fill="none" xmlns="http://www.w3.org/2000/svg">
<path d="M33.4321 36C35.643 36 28.3525 34.6203 33.2472 27.5294L18.706 36H33.4321Z" fill="#E4F5FF"/>
<path d="M0 18C0 8.05888 8.05888 0 18 0C27.9411 0 36 8.05888 36 18C36 27.9411 27.9411 36 18 36C8.05888 36 0 27.9411 0 18Z" fill="#E4F5FF"/>
<path d="M17.647 7.05881C15.562 7.05881 13.8621 8.77382 13.8621 10.8894C13.8621 13.005 15.562 14.72 17.6471 14.72C19.7321 14.72 21.432 13.005 21.432 10.8894C21.432 8.77382 19.7321 7.05881 17.647 7.05881Z" fill="#152FBF"/>
<path d="M28.2352 19.7328C28.2352 17.617 26.5448 15.9018 24.4595 15.9018L13.8618 15.9018L13.8618 23.5638L24.4595 23.5638C26.5448 23.5638 28.2352 21.8486 28.2352 19.7328Z" fill="#1CABE2"/>
<path d="M17.6629 30.3529C19.7533 30.3529 21.4479 28.6335 21.4479 26.5125L21.4479 15.9018L13.8779 15.9018L13.8779 26.5125C13.8779 28.6335 15.5725 30.3529 17.6629 30.3529Z" fill="#4FD183"/>
<path d="M7.05884 19.7328C7.05884 21.8486 8.74926 23.5638 10.8345 23.5638L21.4322 23.5638L21.4322 15.9018L10.8345 15.9018C8.74926 15.9018 7.05884 17.617 7.05884 19.7328Z" fill="#4FD183"/>
<path d="M13.8801 15.8903C13.8801 20.1216 17.2793 23.5517 21.4495 23.5517L21.4495 15.8903L13.8801 15.8903Z" fill="#8DD3FF"/>
</svg>
