<svg width="195" height="30" viewBox="0 0 195 30" fill="none" xmlns="http://www.w3.org/2000/svg">
<path d="M37.8818 24.1816V6.67665H41.5912V13.8101H47.8191V6.67665H51.5781V24.1816H47.8191V17.1473H41.5912V24.1816H37.8818Z" fill="#152FBF"/>
<path d="M56.1259 22.6928C54.935 21.535 54.3395 20.0421 54.3395 18.2143C54.3395 16.3864 54.935 14.906 56.1259 13.7729C57.3169 12.6315 58.785 12.0609 60.5301 12.0609C62.2587 12.0609 63.7019 12.644 64.8598 13.8101C66.026 14.968 66.609 16.4692 66.609 18.3135C66.609 18.6361 66.5925 19 66.5594 19.4052H57.8628C57.9455 20.0504 58.2804 20.5425 58.8677 20.8816C59.4549 21.2207 60.0959 21.3902 60.7906 21.3902C61.9402 21.3902 62.8045 21.018 63.3835 20.2737L65.9515 22.0229C64.8763 23.6274 63.0816 24.4297 60.5673 24.4297C60.5508 24.4297 60.5383 24.4297 60.5301 24.4297C58.785 24.4297 57.3169 23.8507 56.1259 22.6928ZM57.9124 17.197H63.0485C62.9658 16.5353 62.6722 16.0308 62.1677 15.6834C61.6714 15.3361 61.1338 15.1624 60.5549 15.1624C59.9842 15.1624 59.4342 15.3319 58.9049 15.671C58.3756 16.0101 58.0447 16.5188 57.9124 17.197Z" fill="#152FBF"/>
<path d="M70.214 22.6928C68.9982 21.5515 68.3903 20.0669 68.3903 18.2391C68.3903 16.4113 68.9982 14.9267 70.214 13.7853C71.4381 12.6357 72.8441 12.0609 74.4321 12.0609C74.9945 12.0609 75.6106 12.1808 76.2806 12.4206C76.9505 12.6522 77.4881 13.0575 77.8933 13.6364V12.3214H81.3918V24.1816H77.8933V22.8293C77.5542 23.3338 77.0332 23.7225 76.3302 23.9955C75.6272 24.2684 74.9945 24.4049 74.4321 24.4049C72.8358 24.4049 71.4298 23.8342 70.214 22.6928ZM72.9433 16.2169C72.3478 16.7462 72.0501 17.4203 72.0501 18.2391C72.0501 19.0496 72.3478 19.7237 72.9433 20.2613C73.5471 20.7906 74.2377 21.0552 75.0151 21.0552C75.776 21.0552 76.446 20.7989 77.0249 20.2861C77.6039 19.765 77.8933 19.0827 77.8933 18.2391C77.8933 17.3872 77.6039 16.7049 77.0249 16.1921C76.446 15.671 75.776 15.4105 75.0151 15.4105C74.2377 15.4105 73.5471 15.6793 72.9433 16.2169Z" fill="#152FBF"/>
<path d="M84.7363 24.1816V5.85785H88.272V24.1816H84.7363Z" fill="#152FBF"/>
<path d="M90.5495 15.1128V12.3214H92.7082V7.76838H96.2191V12.3214H98.7127V15.1128H96.2191V24.1816H92.7082V15.1128H90.5495Z" fill="#152FBF"/>
<path d="M100.953 24.1816V5.85785H104.489V14.1699C104.712 13.4917 105.159 12.9706 105.829 12.6067C106.507 12.2428 107.168 12.0609 107.814 12.0609C109.352 12.0609 110.526 12.553 111.337 13.5372C112.156 14.5214 112.565 15.9191 112.565 17.7304V24.1816H109.029V17.8545C109.029 17.1267 108.81 16.5519 108.372 16.1301C107.933 15.7082 107.425 15.4973 106.846 15.4973C106.201 15.4973 105.647 15.6917 105.183 16.0804C104.72 16.4691 104.489 17.077 104.489 17.9041V24.1816H100.953Z" fill="#152FBF"/>
<path d="M116.934 24.1816V6.67665H123.943C125.515 6.67665 126.772 7.11913 127.715 8.00409C128.657 8.88079 129.129 10.0635 129.129 11.5522C129.129 12.2139 128.939 12.8466 128.558 13.4503C128.178 14.0458 127.57 14.5049 126.734 14.8274C127.801 15.1004 128.62 15.6338 129.191 16.4278C129.762 17.2135 130.047 18.0116 130.047 18.8222C130.047 20.3274 129.538 21.597 128.521 22.6308C127.504 23.6647 126.147 24.1816 124.452 24.1816H116.934ZM120.668 20.9064H124.253C124.849 20.9064 125.308 20.6913 125.63 20.2613C125.961 19.8229 126.127 19.3184 126.127 18.7477C126.127 18.2019 125.953 17.718 125.606 17.2962C125.266 16.8744 124.791 16.6635 124.179 16.6635H120.668V20.9064ZM120.668 13.5868H123.583C124.055 13.5868 124.443 13.4173 124.75 13.0782C125.064 12.7391 125.221 12.309 125.221 11.7879C125.221 11.2255 125.08 10.7789 124.799 10.4481C124.518 10.1173 124.104 9.95184 123.559 9.95184H120.668V13.5868Z" fill="#152FBF"/>
<path d="M132.635 19.4052V12.3214H136.17V18.6485C136.17 19.4921 136.389 20.0958 136.828 20.4598C137.266 20.8237 137.746 21.0056 138.267 21.0056C138.879 21.0056 139.388 20.8113 139.793 20.4225C140.206 20.0255 140.413 19.4135 140.413 18.5864V12.3214H143.936V24.1816H140.413V22.5564C140.107 23.1353 139.665 23.5944 139.086 23.9335C138.507 24.2643 137.924 24.4297 137.336 24.4297C135.947 24.4297 134.814 23.9996 133.937 23.1395C133.069 22.2793 132.635 21.0346 132.635 19.4052Z" fill="#152FBF"/>
<path d="M146.599 18.2887C146.599 16.4443 147.161 14.9473 148.286 13.7977C149.411 12.6398 150.763 12.0609 152.343 12.0609C153.103 12.0609 153.798 12.2139 154.427 12.5199C155.064 12.8259 155.527 13.2394 155.816 13.7605V5.85785H159.327V24.1816H155.816V22.7053C155.527 23.2511 155.064 23.6771 154.427 23.9831C153.798 24.2808 153.103 24.4297 152.343 24.4297C150.771 24.4297 149.419 23.859 148.286 22.7177C147.161 21.5763 146.599 20.1 146.599 18.2887ZM150.258 18.2143C150.258 19.0744 150.523 19.7692 151.052 20.2985C151.59 20.8195 152.239 21.0801 153 21.0801C153.761 21.0801 154.406 20.8113 154.935 20.2737C155.473 19.7278 155.742 19.0413 155.742 18.2143C155.742 17.3541 155.473 16.6676 154.935 16.1549C154.406 15.6421 153.761 15.3857 153 15.3857C152.239 15.3857 151.59 15.6504 151.052 16.1797C150.523 16.7007 150.258 17.3789 150.258 18.2143Z" fill="#152FBF"/>
<path d="M161.964 18.2887C161.964 16.4443 162.527 14.9473 163.652 13.7977C164.776 12.6398 166.129 12.0609 167.708 12.0609C168.469 12.0609 169.164 12.2139 169.793 12.5199C170.43 12.8259 170.893 13.2394 171.182 13.7605V5.85785H174.693V24.1816H171.182V22.7053C170.893 23.2511 170.43 23.6771 169.793 23.9831C169.164 24.2808 168.469 24.4297 167.708 24.4297C166.137 24.4297 164.785 23.859 163.652 22.7177C162.527 21.5763 161.964 20.1 161.964 18.2887ZM165.624 18.2143C165.624 19.0744 165.889 19.7692 166.418 20.2985C166.956 20.8195 167.605 21.0801 168.366 21.0801C169.127 21.0801 169.772 20.8113 170.301 20.2737C170.839 19.7278 171.108 19.0413 171.108 18.2143C171.108 17.3541 170.839 16.6676 170.301 16.1549C169.772 15.6421 169.127 15.3857 168.366 15.3857C167.605 15.3857 166.956 15.6504 166.418 16.1797C165.889 16.7007 165.624 17.3789 165.624 18.2143Z" fill="#152FBF"/>
<path d="M176.462 12.3214H180.221L182.839 19.0455L185.481 12.3214H189.24L181.921 30H178.186L181.04 22.9658L176.462 12.3214Z" fill="#152FBF"/>
<path d="M13.9309 0.691681C11.3771 0.691681 9.29492 2.7541 9.29492 5.29823C9.29492 7.84235 11.3771 9.90477 13.9309 9.90477C16.4847 9.90477 18.5669 7.84235 18.5669 5.29822C18.5669 2.7541 16.4847 0.69168 13.9309 0.691681Z" fill="#152FBF"/>
<path d="M26.9 15.9331C26.9 13.3887 24.8295 11.326 22.2754 11.326L9.29492 11.326L9.29492 20.5401L22.2754 20.5401C24.8295 20.5401 26.9 18.4775 26.9 15.9331Z" fill="#1CABE2"/>
<path d="M13.9507 28.7045C16.5111 28.7045 18.5867 26.6367 18.5867 24.0861L18.5867 11.326L9.31471 11.326L9.31471 24.0861C9.31471 26.6367 11.3903 28.7045 13.9507 28.7045Z" fill="#4FD183"/>
<path d="M0.962402 15.9331C0.962403 18.4775 3.0329 20.5401 5.58699 20.5401L18.5675 20.5401L18.5675 11.326L5.58699 11.326C3.0329 11.326 0.962402 13.3887 0.962402 15.9331Z" fill="#4FD183"/>
<path d="M9.31738 11.3122C9.31738 16.4005 13.4809 20.5255 18.5886 20.5255L18.5886 11.3122L9.31738 11.3122Z" fill="#8DD3FF"/>
</svg>
